# xmcd
#
# Track frame offsets:
#	150
#	11337
#	23280
#	39975
#	53800
#	72535
#	83352
#	97320
#	115245
#	127807
#	140245
#	153450
#	167330
#	188187
#	202587
#
# Disc length: 3020
#
# Revision: 2
# Processed by: cddbd v1.5.2PL0 Copyright (c) Steve Scherf et al.
# Submitted via: ExactAudioCopy v0.95a5
# Normalized: r1:DSETVAR1
#
DISCID=b50bca0f
DTITLE=Various Artist - Classic Country Great Story Songs II [CD2]
DYEAR=2002
DGENRE=Country
TTITLE0=Carl Smith - Ten Thousand Drums
TTITLE1=Jimmy Dean - The Cajun Queen
TTITLE2=Marty Robbins - Ballad Of The Alamo
TTITLE3=The Kingston Trio - The Reverend Mr. Black
TTITLE4=Johnny Cash - The Ballad Of Ira Hayes
TTITLE5=Porter Wagoner - Green, Green Grass Of Home
TTITLE6=Dolly Parton - Coat Of Many Colors
TTITLE7=Bobby Goldsboro - Honey
TTITLE8=Sonny James - Running Bear
TTITLE9=Tom T. Hall - The Year That Clayton Delaney Died
TTITLE10=Johnny Darrell - The Son Of Hickory Holler's Tramp
TTITLE11=Tanya Tucker - Blood Red And Goin' Down
TTITLE12=Kris Kristofferson, Johnny Cash, Willie Nelson and Waylon Jennings - Desperados Waiting For A Train
TTITLE13=Bobby Bare - Marie LaVeau
TTITLE14=The Charlie Daniels Band - Uneasy Rider
EXTD=
EXTT0=
EXTT1=
EXTT2=
EXTT3=
EXTT4=
EXTT5=
EXTT6=
EXTT7=
EXTT8=
EXTT9=
EXTT10=
EXTT11=
EXTT12=
EXTT13=
EXTT14=
PLAYORDER=
